<svg width="42" height="41" viewBox="0 0 42 41" fill="none" xmlns="http://www.w3.org/2000/svg">
<g id="Group">
<path id="Vector" d="M41.8705 0.899794L11.2598 0.889649C7.12861 0.888199 5.06002 5.73458 7.97995 8.56936C8.85219 9.41574 10.0351 9.88965 11.2688 9.88675L32.6567 9.84037L32.6089 30.594C32.6059 31.7911 33.0943 32.9389 33.9665 33.7853C36.888 36.6201 41.8825 34.6114 41.881 30.6027L41.8705 0.899794Z" fill="url(#paint0_linear_448_3698)"/>
<path id="Vector_2" d="M26.0202 13.1781L12.9455 25.865C12.0807 26.7027 12.0807 28.0621 12.9455 28.9013C13.3771 29.3201 13.9432 29.5302 14.5092 29.5302C15.0753 29.5302 15.6413 29.3201 16.073 28.9013L29.1477 16.2143C30.011 15.3752 30.011 14.0172 29.1477 13.1781C28.2859 12.3404 26.8849 12.3404 26.0202 13.1781Z" fill="url(#paint1_linear_448_3698)"/>
<path id="Vector_3" d="M17.2848 12.8273C16.4215 11.9882 15.0205 11.9882 14.1558 12.8273L1.08106 25.5143C0.217773 26.3534 0.217773 27.7114 1.08106 28.5505C1.5127 28.9694 2.07876 29.1795 2.64482 29.1795C3.21088 29.1795 3.77695 28.9694 4.20859 28.5505L17.2833 15.8636C18.1481 15.0244 18.1481 13.665 17.2848 12.8273Z" fill="url(#paint2_linear_448_3698)"/>
<path id="Vector_4" d="M25.7768 24.5374L12.7021 37.2244C11.8389 38.0621 11.8389 39.4215 12.7021 40.2606C13.1338 40.6795 13.6999 40.8896 14.2659 40.8896C14.832 40.8896 15.398 40.6795 15.8297 40.2606L28.9044 27.5737C29.7692 26.736 29.7692 25.3766 28.9044 24.5374C28.0411 23.6998 26.6401 23.6998 25.7768 24.5374Z" fill="url(#paint3_linear_448_3698)"/>
</g>
<defs>
<linearGradient id="paint0_linear_448_3698" x1="42.5243" y1="0.125142" x2="12.7102" y2="31.0923" gradientUnits="userSpaceOnUse">
<stop stop-color="#FBCB24"/>
<stop offset="0.5168" stop-color="#E939D9"/>
<stop offset="1" stop-color="#2ABAE9"/>
</linearGradient>
<linearGradient id="paint1_linear_448_3698" x1="30.1143" y1="12.1705" x2="15.3212" y2="27.5351" gradientUnits="userSpaceOnUse">
<stop stop-color="#FBCB24"/>
<stop offset="0.5168" stop-color="#E939D9"/>
<stop offset="1" stop-color="#2ABAE9"/>
</linearGradient>
<linearGradient id="paint2_linear_448_3698" x1="18.2513" y1="11.8186" x2="3.45715" y2="27.1834" gradientUnits="userSpaceOnUse">
<stop stop-color="#FBCB24"/>
<stop offset="0.5168" stop-color="#E939D9"/>
<stop offset="1" stop-color="#2ABAE9"/>
</linearGradient>
<linearGradient id="paint3_linear_448_3698" x1="29.8722" y1="23.5298" x2="15.079" y2="38.8944" gradientUnits="userSpaceOnUse">
<stop stop-color="#FBCB24"/>
<stop offset="0.5168" stop-color="#E939D9"/>
<stop offset="1" stop-color="#2ABAE9"/>
</linearGradient>
</defs>
</svg>
